<svg id="Layer_1" data-name="Layer 1" xmlns="http://www.w3.org/2000/svg" viewBox="0 0 65.53 78.72"><defs><style>.cls-1{fill:#004e7e;}</style></defs><path class="cls-1" d="M20.68,33.71A4.75,4.75,0,0,0,21,32.17c.39-2.91.75-5.83,1.15-8.73a3,3,0,0,1,2.95-2.62h.1c2.62,0,1.92-.29,4,1.72.69.68.69.68,1.38,0l1.21-1.2a1.56,1.56,0,0,1,1.23-.51,9.45,9.45,0,0,1,2,.09c-1,2.08-.92,4.35-1.27,6.53s-.53,4.23-.82,6.34a4.39,4.39,0,0,0,2.25,4.57.52.52,0,0,1,.33.62c-.32,3-.64,6-.92,9A3.17,3.17,0,0,1,31,51.16c-.92,0-1.84,0-2.75,0a3,3,0,0,1-3.15-2.72c-.29-2.35-.5-4.71-.74-7.07-.18-1.66-.34-3.33-.5-5,0-.28-.1-.43-.42-.4s-.73,0-1.1,0a1.57,1.57,0,0,1-1.57-.92s-.08-.08-.12-.12Z" transform="translate(-12.24 -5.64)"/><path class="cls-1" d="M69.32,35a2,2,0,0,1-2.26,1c-.13,0-.26,0-.38,0-.44-.08-.55.12-.58.53q-.57,5.82-1.17,11.64a3.08,3.08,0,0,1-3.4,3c-.93,0-1.86,0-2.8,0a3,3,0,0,1-3.2-2.77c-.28-2.37-.5-4.74-.74-7.11-.08-.77-.14-1.54-.25-2.31a.49.49,0,0,1,.28-.6,4.38,4.38,0,0,0,2.28-4.69q-.69-5.23-1.35-10.47a6.61,6.61,0,0,0-.8-2.32,9.65,9.65,0,0,1,2.63,0,1.49,1.49,0,0,1,.76.47L60,23c.17.18.27.19.44,0,.53-.55,1.08-1.07,1.61-1.62a1.77,1.77,0,0,1,1.39-.58c.37,0,.73,0,1.09,0A3.13,3.13,0,0,1,68,23.9c.4,3.26.83,6.51,1.24,9.77,0,.07,0,.12.09.14Z" transform="translate(-12.24 -5.64)"/><path class="cls-1" d="M45.76,5.64c.18.19.44.11.65.17a6.07,6.07,0,1,1-2.5-.07c.09,0,.2,0,.23-.1Z" transform="translate(-12.24 -5.64)"/><path class="cls-1" d="M61,5.64c.19.18.44.11.66.17a6.08,6.08,0,1,1-2.51-.07c.09,0,.2,0,.24-.1Z" transform="translate(-12.24 -5.64)"/><path class="cls-1" d="M30.56,5.64c.2.18.46.12.7.18a6.1,6.1,0,1,1-2.5-.08c.07,0,.16,0,.18-.1Z" transform="translate(-12.24 -5.64)"/><path class="cls-1" d="M45,51.8c-.55,0-1.1,0-1.66,0a3,3,0,0,1-3-2.69c-.23-2.19-.38-2-.56-4.17-.24-2.85-.47-5.69-.69-8.54,0-.32-.12-.44-.45-.42a11.78,11.78,0,0,1-1.19,0A1.53,1.53,0,0,1,35.9,34.2c.24-2,.51-4,.77-6,.2-1.6.4-3.2.63-4.79a3,3,0,0,1,2.85-2.57c.61,0,1.23,0,1.85,0a1.57,1.57,0,0,1,1.09.5c.52.51,1.06,1,1.54,1.55.3.34.48.28.75,0,.48-.52,1-1,1.51-1.52a1.68,1.68,0,0,1,1.27-.52H49.3a3.12,3.12,0,0,1,3.48,3.08q.64,5.09,1.31,10.19A1.56,1.56,0,0,1,52.47,36c-.34,0-.7,0-1,0s-.49.07-.52.44c-.11,1.66-.26,3.31-.39,5-.27,3.26-.52,4.12-.8,7.38a3.06,3.06,0,0,1-3.36,3Z" transform="translate(-12.24 -5.64)"/><path class="cls-1" d="M12.24,53.73c0-1.17,0-2.34,0-3.51,0-.27,0-.38.32-.33a1.69,1.69,0,0,0,.32,0H77.75A37.73,37.73,0,0,1,77.34,57,32,32,0,0,1,65.1,77.46a32,32,0,0,1-24.47,6.6,31.42,31.42,0,0,1-16.19-7A32.19,32.19,0,0,1,12.6,56.64c-.11-.68-.25-1.29-.36-2v-.51A1,1,0,0,0,12.24,53.73ZM29.15,65.21a.73.73,0,0,0,0-.22,60,60,0,0,1-1.37-10.92c0-.43-.27-.34-.51-.34H16.64c-.39,0-.49.08-.46.48a28.6,28.6,0,0,0,3.08,10.7.52.52,0,0,0,.54.32h9.35ZM68,53.73c-1.75,0-3.5,0-5.24,0-.39,0-.54.06-.56.5a55.89,55.89,0,0,1-1.34,10.54c-.08.36,0,.46.38.46q4.46,0,8.89,0a.56.56,0,0,0,.59-.34,28.53,28.53,0,0,0,3.07-10.64c0-.41,0-.53-.48-.52C71.56,53.74,69.79,53.73,68,53.73ZM43.08,59.48V54.19c0-.26.05-.48-.37-.47H32c-.29,0-.4.06-.39.39a56.82,56.82,0,0,0,1.47,10.7c.09.37.25.41.56.41q4.47,0,8.94,0c.41,0,.54-.08.53-.51C43.06,63,43.08,61.23,43.08,59.48Zm3.84,0c0,1.74,0,3.48,0,5.22,0,.4.07.54.51.54,3,0,6,0,8.94,0,.36,0,.5-.08.59-.45A57.09,57.09,0,0,0,58.4,54.12c0-.46-.22-.39-.5-.39H47.43c-.43,0-.53.11-.52.52C46.93,56,46.92,57.72,46.92,59.47ZM34.35,69a23.9,23.9,0,0,0,1.32,3.17A18.16,18.16,0,0,0,40.76,79a7,7,0,0,0,2.32,1.22c0-3.63,0-7.2,0-10.77,0-.32-.12-.37-.41-.37Zm21.33,0H47.27c-.36,0-.36.16-.36.42q0,5.16,0,10.32c0,.42.13.4.44.27a8.45,8.45,0,0,0,2.07-1.23C52.55,76.26,54.2,72.78,55.68,69Zm-20.45,9.8c-.36-.51-.63-.87-.88-1.24a32.43,32.43,0,0,1-3.9-8c-.14-.42-.31-.56-.75-.54-.93,0-1.87,0-2.81,0h-5A29.31,29.31,0,0,0,35.23,78.84Zm19.7-.12A28.51,28.51,0,0,0,68.11,69c-2.77,0-5.41,0-8,0-.31,0-.4.15-.48.39A33.67,33.67,0,0,1,54.93,78.72Z" transform="translate(-12.24 -5.64)"/></svg>