<svg id="Layer_1" data-name="Layer 1" xmlns="http://www.w3.org/2000/svg" viewBox="0 0 30.73 81.97"><defs><style>.cls-1{fill:#004e7e;}</style></defs><path class="cls-1" d="M46.25,4c.44.09.76.14,1.13.23a10.27,10.27,0,1,1-4.22-.11L43.58,4Z" transform="translate(-29.63 -4.01)"/><path class="cls-1" d="M45,86c-.93,0-1.87,0-2.8,0a5,5,0,0,1-5-4.53c-.38-3.66-.64-7.33-1-11C35.8,65.6,35.4,60.76,35,55.92c0-.6-.26-.76-.83-.71a17.2,17.2,0,0,1-1.76,0A2.63,2.63,0,0,1,29.67,52c.32-2.35.61-4.7.92-7.06.47-3.64.92-7.3,1.43-10.94a5,5,0,0,1,4.87-4.36c1-.05,2,0,3,0a2.69,2.69,0,0,1,1.9.89c.92.93,1.87,1.83,2.77,2.78.32.34.5.31.81,0,.9-.95,1.84-1.85,2.76-2.78a2.79,2.79,0,0,1,2.15-.89c.64,0,1.28,0,1.92,0,3.51,0,5.42,1.66,5.86,5.11q1.13,8.69,2.24,17.38a2.62,2.62,0,0,1-2.73,3.14,16.14,16.14,0,0,1-1.84,0c-.62-.07-.76.19-.8.73-.21,2.88-.45,5.75-.68,8.62-.45,5.45-.85,10.91-1.35,16.35C52.64,84.2,50.6,86,47.3,86Z" transform="translate(-29.63 -4.01)"/></svg>