<svg id="Layer_1" data-name="Layer 1" xmlns="http://www.w3.org/2000/svg" viewBox="0 0 84.96 77.57"><defs><style>.cls-1{fill:#004e7e;}</style></defs><path class="cls-1" d="M46,34.83H82.73a2.2,2.2,0,0,0,.94-.22.55.55,0,0,0,.26-.77,1.57,1.57,0,0,0-.35-.49,6.43,6.43,0,0,0-.71-.58L68.22,22.17,48.74,8.08A3.9,3.9,0,0,0,48,7.63a4.77,4.77,0,0,0-4.79.48c-1.52,1.08-3,2.18-4.54,3.28L9,32.84a5.89,5.89,0,0,0-.61.51,1.77,1.77,0,0,0-.34.46.55.55,0,0,0,.27.79,1.59,1.59,0,0,0,.52.17,4.9,4.9,0,0,0,.94.06Zm0,49.94H86.85a1.65,1.65,0,0,0,1.53-1.1,2.43,2.43,0,0,0,.08-.76,1.62,1.62,0,0,0-1.28-1.57,2.67,2.67,0,0,0-.63,0H5.05a1.63,1.63,0,0,0-1.49,1.19,2.23,2.23,0,0,0-.05.73,1.5,1.5,0,0,0,.43,1,1.7,1.7,0,0,0,1.32.51ZM32.83,52.93v6.25c0,2.21,0,4.42,0,6.63a1.93,1.93,0,0,0,.12.84,1.62,1.62,0,0,0,1.31.95l.39,0H41a2.27,2.27,0,0,0,.45,0,1.54,1.54,0,0,0,1.21-1,2.18,2.18,0,0,0,.15-.91q0-12.78,0-25.55a3.39,3.39,0,0,0,0-.45,1.57,1.57,0,0,0-.95-1.31,1.87,1.87,0,0,0-.81-.14H34.38a1.6,1.6,0,0,0-1.53,1.46,5.61,5.61,0,0,0,0,.58Q32.82,46.63,32.83,52.93ZM16.54,53V65.77c0,.16,0,.32,0,.48a.55.55,0,0,0,0,.18,1.67,1.67,0,0,0,1.63,1.19h6.85a1.58,1.58,0,0,0,1.1-.58,1.74,1.74,0,0,0,.38-1.19V39.9a1.6,1.6,0,0,0-1.61-1.61c-2.26,0-4.52,0-6.79,0h-.06a1.61,1.61,0,0,0-1.53,1.56V53Zm48.9,0v8.58c0,1.5,0,3,0,4.48a1.6,1.6,0,0,0,1.17,1.56,2.07,2.07,0,0,0,.61.06H74a1.6,1.6,0,0,0,1.37-1.11,1.82,1.82,0,0,0,.08-.66v-26a1.62,1.62,0,0,0-1.24-1.54,2,2,0,0,0-.54,0H67a1.6,1.6,0,0,0-1.44,1.05,1.77,1.77,0,0,0-.09.69Zm-6.32,0V39.85a1.63,1.63,0,0,0-1.26-1.53,2.15,2.15,0,0,0-.51,0h-6.7a1.63,1.63,0,0,0-1.47,1.22,2.39,2.39,0,0,0,0,.6V66.05a1.62,1.62,0,0,0,1,1.43,1.68,1.68,0,0,0,.77.14h6.76a1.64,1.64,0,0,0,1.43-1.18,2.75,2.75,0,0,0,0-.7ZM46,76.3H80.05a2,2,0,0,0,.54,0,1.59,1.59,0,0,0,1.19-1.89,1.53,1.53,0,0,0-1.09-1.25A1.9,1.9,0,0,0,80,73H11.71a1.64,1.64,0,0,0-.28,3.24,2.05,2.05,0,0,0,.49,0Z" transform="translate(-3.5 -7.2)"/><path class="cls-1" d="M46,34.83H9.76a4.9,4.9,0,0,1-.94-.06,1.59,1.59,0,0,1-.52-.17A.55.55,0,0,1,8,33.81a1.77,1.77,0,0,1,.34-.46A5.89,5.89,0,0,1,9,32.84L38.65,11.39c1.51-1.1,3-2.2,4.54-3.28A4.77,4.77,0,0,1,48,7.63a3.9,3.9,0,0,1,.76.45L68.22,22.17,82.87,32.76a6.43,6.43,0,0,1,.71.58,1.57,1.57,0,0,1,.35.49.55.55,0,0,1-.26.77,2.2,2.2,0,0,1-.94.22H46Z" transform="translate(-3.5 -7.2)"/><path class="cls-1" d="M46,84.77H5.26a1.7,1.7,0,0,1-1.32-.51,1.5,1.5,0,0,1-.43-1,2.23,2.23,0,0,1,.05-.73A1.63,1.63,0,0,1,5.05,81.3h81.5a2.67,2.67,0,0,1,.63,0,1.62,1.62,0,0,1,1.28,1.57,2.43,2.43,0,0,1-.08.76,1.65,1.65,0,0,1-1.53,1.1H46Z" transform="translate(-3.5 -7.2)"/><path class="cls-1" d="M32.83,52.93q0-6.3,0-12.6a5.61,5.61,0,0,1,0-.58,1.6,1.6,0,0,1,1.53-1.46H41a1.87,1.87,0,0,1,.81.14,1.57,1.57,0,0,1,.95,1.31,3.39,3.39,0,0,1,0,.45q0,12.78,0,25.55a2.18,2.18,0,0,1-.15.91,1.54,1.54,0,0,1-1.21,1,2.27,2.27,0,0,1-.45,0H34.65l-.39,0A1.62,1.62,0,0,1,33,66.65a1.93,1.93,0,0,1-.12-.84c0-2.21,0-4.42,0-6.63Z" transform="translate(-3.5 -7.2)"/><path class="cls-1" d="M16.54,53V39.85a1.61,1.61,0,0,1,1.53-1.56h.06c2.27,0,4.53,0,6.79,0a1.6,1.6,0,0,1,1.61,1.61V65.84A1.74,1.74,0,0,1,26.15,67a1.58,1.58,0,0,1-1.1.58H18.2a1.67,1.67,0,0,1-1.63-1.19.55.55,0,0,1,0-.18c0-.16,0-.32,0-.48Z" transform="translate(-3.5 -7.2)"/><path class="cls-1" d="M65.44,52.94V40a1.77,1.77,0,0,1,.09-.69A1.6,1.6,0,0,1,67,38.29h6.67a2,2,0,0,1,.54,0,1.62,1.62,0,0,1,1.24,1.54v26a1.82,1.82,0,0,1-.08.66A1.6,1.6,0,0,1,74,67.61H67.22a2.07,2.07,0,0,1-.61-.06A1.6,1.6,0,0,1,65.44,66c0-1.49,0-3,0-4.48Z" transform="translate(-3.5 -7.2)"/><path class="cls-1" d="M59.12,53V65.73a2.75,2.75,0,0,1,0,.7,1.64,1.64,0,0,1-1.43,1.18H50.88a1.68,1.68,0,0,1-.77-.14,1.62,1.62,0,0,1-1-1.43V40.11a2.39,2.39,0,0,1,0-.6,1.63,1.63,0,0,1,1.47-1.22h6.7a2.15,2.15,0,0,1,.51,0,1.63,1.63,0,0,1,1.26,1.53V53Z" transform="translate(-3.5 -7.2)"/><path class="cls-1" d="M46,76.3H11.92a2.05,2.05,0,0,1-.49,0A1.64,1.64,0,0,1,11.71,73H80a1.9,1.9,0,0,1,.67.08,1.53,1.53,0,0,1,1.09,1.25,1.59,1.59,0,0,1-1.19,1.89,2,2,0,0,1-.54,0H46Z" transform="translate(-3.5 -7.2)"/></svg>